<?xml version="1.0" encoding="utf-8"?>
<!-- Generator: Adobe Illustrator 16.0.4, SVG Export Plug-In . SVG Version: 6.00 Build 0)  -->
<!DOCTYPE svg PUBLIC "-//W3C//DTD SVG 1.1//EN" "http://www.w3.org/Graphics/SVG/1.1/DTD/svg11.dtd">
<svg version="1.1" id="Layer_1" xmlns="http://www.w3.org/2000/svg" xmlns:xlink="http://www.w3.org/1999/xlink" x="0px" y="0px"
	 width="322.5px" height="77px" viewBox="0 0 322.5 77" enable-background="new 0 0 322.5 77" xml:space="preserve">
<g>
	<path fill="#ffffff" d="M254.092,23.728c-8.488,0-15.37,6.882-15.37,15.371c0,8.488,6.882,15.369,15.37,15.369
		s15.37-6.881,15.37-15.369C269.462,30.609,262.58,23.728,254.092,23.728z M254.092,49.599c-5.8,0-10.501-4.701-10.501-10.501
		s4.701-10.501,10.501-10.501s10.501,4.701,10.501,10.501S259.892,49.599,254.092,49.599z"/>
	<path fill="#ffffff" d="M99.246,28.426H81.938v-4.781l27.056,0.001L90.301,49.554h17.117v4.781l-26.841,0.02L99.246,28.426z"/>
	<path fill="#ffffff" d="M115.498,23.645l22.988,0.001v4.826l-17.592-0.001v7.984h15.398v4.826h-15.398v8.246h17.592v4.826h-22.988
		V23.645z"/>
	<path fill="#ffffff" d="M145.237,23.645h13.688c3.859,0,6.887,1.141,8.861,3.07c1.623,1.668,2.545,3.949,2.545,6.625v0.088
		c0,5.045-3.027,8.072-7.326,9.301l8.291,11.625h-6.361l-7.545-10.705h-6.756v10.705h-5.396V23.645z M158.53,38.867
		c3.859,0,6.316-2.018,6.316-5.133v-0.088c0-3.289-2.369-5.088-6.361-5.088h-7.852v10.309H158.53z"/>
	<path fill="#ffffff" d="M211.885,23.645h22.855v4.914h-17.461v8.379h15.486v4.914h-15.486v12.502h-5.395V23.645z"/>
	<path fill="#ffffff" d="M282.348,38.736L271.6,23.645h6.361l7.566,10.729l7.744-10.729h6.186l-10.805,15.101l11.242,15.608h-6.359
		l-8.04-11.224l-8.149,11.224h-6.186L282.348,38.736z"/>
	<g>
		<path fill="#E7282B" d="M182.454,45.807c-1.536-1.826-2.465-4.181-2.465-6.754c0-5.8,4.701-10.501,10.501-10.501
			c1.373,0,2.682,0.271,3.884,0.751l2.906-4.023c-2.05-1.013-4.35-1.597-6.79-1.597c-8.488,0-15.37,6.882-15.37,15.371
			c0,4.202,1.69,8.008,4.424,10.782L182.454,45.807z"/>
		<path fill="#E7282B" d="M201.434,28.268l-2.91,4.029c1.538,1.826,2.468,4.182,2.468,6.756c0,5.8-4.701,10.501-10.501,10.501
			c-1.374,0-2.683-0.271-3.885-0.751l-2.905,4.023c2.05,1.013,4.349,1.597,6.79,1.597c8.488,0,15.37-6.881,15.37-15.369
			C205.86,34.85,204.169,31.043,201.434,28.268z"/>
	</g>
	<g>
		<polygon fill="#A51E23" points="40.791,33.192 47.443,28.818 47.443,39.894 49.924,42.396 39.196,52.846 37.1,52.846 37.1,33.192
					"/>
		<polygon fill="#E7282B" points="33.41,33.192 26.757,28.818 26.757,39.894 24.276,42.396 35.004,52.846 37.1,52.846 37.1,33.192
					"/>
	</g>
	<g>
		<path fill="#A51E23" d="M18.556,59.838l3.577-4.981c-4.169-3.961-6.773-9.554-6.773-15.759c0-12.007,9.733-21.74,21.74-21.74
			c3.668,0,7.123,0.913,10.154,2.517l3.574-4.977c-4.052-2.304-8.734-3.626-13.728-3.626c-15.368,0-27.826,12.458-27.826,27.826
			C9.274,47.341,12.861,54.743,18.556,59.838z"/>
		<path fill="#E7282B" d="M55.645,18.356l-3.577,4.982c4.169,3.961,6.773,9.554,6.773,15.759c0,12.007-9.733,21.74-21.74,21.74
			c-3.668,0-7.123-0.912-10.154-2.517l-3.574,4.977c4.052,2.304,8.734,3.626,13.728,3.626c15.368,0,27.826-12.458,27.826-27.826
			C64.926,30.854,61.339,23.452,55.645,18.356z"/>
	</g>
</g>
</svg>